<?xml version="1.0" standalone="no"?>
<!DOCTYPE svg PUBLIC "-//W3C//DTD SVG 20010904//EN"
 "http://www.w3.org/TR/2001/REC-SVG-20010904/DTD/svg10.dtd">
<svg version="1.0" xmlns="http://www.w3.org/2000/svg"
 width="700.000000pt" height="700.000000pt" viewBox="0 0 700.000000 700.000000"
 preserveAspectRatio="xMidYMid meet">
<metadata>
Created by potrace 1.14, written by Peter Selinger 2001-2017
</metadata>
<g transform="translate(0.000000,700.000000) scale(0.100000,-0.100000)"
fill="#000000" stroke="none">
<path d="M2050 5745 c-260 -47 -463 -227 -554 -490 -21 -60 -21 -69 -23 -1725
-3 -1744 -3 -1707 39 -1826 47 -132 174 -286 293 -355 125 -73 235 -103 375
-102 141 1 259 37 385 118 28 18 132 84 232 146 101 63 209 131 240 151 32 21
67 42 78 48 11 6 57 34 102 63 45 28 127 80 183 115 l102 63 206 -130 c114
-71 250 -156 302 -189 52 -33 140 -88 195 -122 55 -34 123 -77 150 -94 103
-67 131 -83 185 -108 117 -55 274 -77 395 -55 293 52 508 255 581 547 11 45
13 346 14 1692 0 1656 0 1677 -36 1786 -16 49 -64 146 -91 182 -75 102 -220
212 -333 253 -185 67 -397 52 -564 -38 -67 -36 -181 -106 -203 -125 -7 -5 -14
-10 -16 -10 -3 0 -65 -38 -138 -84 -74 -46 -250 -157 -392 -246 l-258 -162
-107 68 c-59 37 -123 77 -142 90 -173 112 -710 445 -768 474 -128 67 -289 91
-432 65z"/>
</g>
</svg>
